# xmcd
#
# Track frame offsets: 
#        150
#        11446
#        27751
#        41661
#        52786
#        63501
#        72631
#        83504
#        94295
#        103203
#        114042
#        123538
#        136112
#        147705
#        160046
#        175261
#        188286
#        198821
#        209898
#        218751
#        232187
#        244323
#        256045
#        267037
#        279017
#
# Disc length: 3880 seconds
#
# Revision: 0
# Processed by: cddbd v1.5.2PL0 Copyright (c) Steve Scherf et al.
# Submitted via: ExactAudioCopyFreeDBPlugin 1.0
#
DISCID=5d0f2619
DTITLE=Buck Owens - Buck 'Em! Volume 2: The Music Of Buck Owens (1967-
DTITLE=1975) [CD1]
DYEAR=2015
DGENRE=Country
TTITLE0=Happy Times Are Here Again
TTITLE1=Sweet Rosie Jones
TTITLE2=Your Mother's Prayer
TTITLE3=You'll Never Miss The Water (Till The Well Runs Dry)
TTITLE4=If I Had Three Wishes
TTITLE5=Let The World Keep On A Turnin'
TTITLE6=Things I Saw Happening At The Fountain On The Plaza When I Was
TTITLE6=Visiting Rome Or Amore
TTITLE7=Darlin', You Can Depend On Me (Alternate Version)
TTITLE8=I've Got A Tiger By The Tail (Live At The White House)
TTITLE9=Who's Gonna Mow Your Grass
TTITLE10=We're Gonna Get Together
TTITLE11=I've Got You On My Mind Again (Live In London)
TTITLE12=Johnny B. Goode (Live In London)
TTITLE13=Today I Started Loving You Again (Outtake)
TTITLE14=Big In Vegas (Live In Las Vegas)
TTITLE15=Las Vegas Lament (Live In Las Vegas)
TTITLE16=The Kansas City Song
TTITLE17=Down In New Orleans (Early Version)
TTITLE18=Tall Dark Stranger (Live In Scandinavia)
TTITLE19=I Wouldn't Live In New York City (If They Gave Me The Whole D
TTITLE19=ang Town)
TTITLE20=Bridge Over Troubled Water
TTITLE21=(I'm Goin') Home
TTITLE22=Ruby (Are You Mad)
TTITLE23=Corn Likker
TTITLE24=I'll Still Be Waiting For You (Live In Reno)
EXTD=
EXTT0=
EXTT1=
EXTT2=
EXTT3=
EXTT4=
EXTT5=
EXTT6=
EXTT7=
EXTT8=
EXTT9=
EXTT10=
EXTT11=
EXTT12=
EXTT13=
EXTT14=
EXTT15=
EXTT16=
EXTT17=
EXTT18=
EXTT19=
EXTT20=
EXTT21=
EXTT22=
EXTT23=
EXTT24=
PLAYORDER=
